<svg width="149" height="30" viewBox="0 0 149 30" fill="none" xmlns="http://www.w3.org/2000/svg">
<path d="M30.4841 5.76022H24.72C22.3297 5.76022 20.2891 6.60754 18.5984 8.30607C16.9076 10.0007 16.0564 12.0374 16.0564 14.4161V25.9598H16.0681C16.1264 27.4874 17.3857 28.7039 18.9404 28.7039C20.4951 28.7039 21.7466 27.4912 21.8088 25.9754L21.8205 25.9637V14.42C21.8205 13.6387 22.1042 12.9585 22.6717 12.3911C23.2431 11.8197 23.9194 11.5399 24.7162 11.5399H30.4803C31.2537 11.5399 31.9223 11.8236 32.4975 12.3911C33.0727 12.9585 33.3565 13.6348 33.3565 14.42V25.9637L33.3798 26.0065C33.4575 27.5107 34.7013 28.7078 36.2444 28.7078C37.6475 28.7078 38.8135 27.7128 39.0662 26.3913C39.1011 26.2552 39.1245 26.0881 39.1245 25.8627V14.4239C39.1245 12.0452 38.2771 10.0046 36.5825 8.31384C34.8918 6.61143 32.859 5.768 30.4803 5.768" fill="white"/>
<path d="M106.723 5.76022H100.963C98.5689 5.76022 96.5245 6.60754 94.8376 8.30607C93.1469 10.0007 92.2996 12.0374 92.2996 14.4161V20.1763C92.2996 22.5706 93.1469 24.615 94.8376 26.3058C96.5245 27.9965 98.5689 28.8399 100.963 28.8399H112.515C112.515 28.8399 112.515 28.8361 112.523 28.8361C114.101 28.7972 115.368 27.5262 115.368 25.9598C115.368 24.3935 114.128 23.1536 112.573 23.0875H112.55C112.515 23.0875 112.48 23.072 112.445 23.072C112.41 23.072 112.375 23.0875 112.344 23.0875H100.963C100.163 23.0875 99.4823 22.796 98.911 22.2324C98.3435 21.6688 98.0598 20.9809 98.0598 20.1841V14.4239C98.0598 13.6426 98.3435 12.9624 98.911 12.395C99.4784 11.8236 100.163 11.5438 100.963 11.5438H106.723C107.501 11.5438 108.169 11.8275 108.745 12.395C109.32 12.9624 109.607 13.6387 109.607 14.4239H106.35C105.274 14.4239 106.463 14.4239 105.386 14.4239C103.769 14.4239 102.467 15.7143 102.467 17.3079C102.467 18.7188 103.49 19.8926 104.846 20.1413C104.986 20.1763 105.149 20.1957 105.386 20.1957C107.062 20.1957 106.467 20.188 108.154 20.188H113.222C114.652 20.188 115.372 19.4728 115.372 18.0425V14.4278C115.372 12.049 114.528 10.0085 112.833 8.31773C111.143 6.61532 109.11 5.77188 106.727 5.77188" fill="white"/>
<path d="M5.82248 25.851L5.76418 10.8169C5.77195 9.38659 5.0529 8.66365 3.61867 8.65976H2.17668C0.73468 8.65199 0.0117381 9.37104 7.77089e-05 10.8014V25.8432C-0.0115826 27.429 1.29049 28.7195 2.89962 28.7272C4.48931 28.7272 5.77973 27.4718 5.81471 25.9093H5.82248V25.8627V25.8549V25.851Z" fill="white"/>
<path d="M2.89587 5.7058C4.47002 5.7058 5.74488 4.42705 5.74488 2.8529C5.74488 1.27875 4.47002 0 2.89587 0C1.32172 0 0.0429688 1.27875 0.0429688 2.8529C0.0429688 4.42705 1.32172 5.7058 2.89587 5.7058Z" fill="white"/>
<path d="M60.7388 23.9348C60.63 23.8338 60.5212 23.7288 60.389 23.6511C60.0353 23.4101 59.6311 23.2469 59.1841 23.1808L59.2074 23.1691L58.3834 23.0797C57.8976 23.0797 57.2912 22.8854 56.5683 22.5123C55.8415 22.1314 55.4878 21.354 55.4878 20.1763V11.536H58.3834L58.4106 11.5243C58.4961 11.5321 58.5817 11.5515 58.6749 11.5515C60.288 11.5515 61.6017 10.2572 61.6017 8.65976C61.6017 7.06229 60.2918 5.7641 58.6749 5.7641C58.6166 5.7641 58.57 5.77576 58.5117 5.77965L58.3873 5.75633H55.4917V2.16883C55.4917 0.722942 54.7687 0 53.3384 0H51.9003C50.4505 0 49.7314 0.722942 49.7314 2.16883V20.1802C49.7314 22.5744 50.5749 24.6189 52.2695 26.3096C53.9564 27.9965 56.0008 28.8438 58.3912 28.8438C58.4378 28.8438 58.57 28.8438 58.7099 28.8438C58.7216 28.8438 58.7294 28.8438 58.7449 28.8438C58.7604 28.8438 58.776 28.8399 58.7954 28.8399C58.9392 28.8399 59.0714 28.8322 59.1025 28.8244L59.0947 28.8088C60.525 28.6378 61.6367 27.4485 61.6367 25.9909C61.6367 25.1825 61.2907 24.4557 60.7466 23.9348" fill="white"/>
<path d="M141.121 9.38658C141.121 11.5671 142.886 13.3278 145.063 13.3278C147.239 13.3278 149 11.5671 149 9.38658C149 7.2061 147.235 5.45316 145.063 5.45316C142.89 5.45316 141.121 7.21387 141.121 9.38658Z" fill="#ED1C24"/>
<path d="M145.14 21.2063H145.067C142.89 21.2063 141.125 19.4495 141.125 17.269V17.2612C141.125 15.0924 139.361 13.3317 137.192 13.3317H137.184C135.008 13.3317 133.243 11.571 133.243 9.39047V9.38269C133.243 7.21387 131.478 5.45316 129.31 5.45316C127.141 5.45316 125.368 7.21776 125.368 9.39047C125.368 11.5632 127.133 13.3278 129.306 13.3278C131.475 13.3278 133.243 15.0924 133.243 17.2651C133.243 19.4378 131.478 21.2063 129.306 21.2063C129.275 21.2063 129.247 21.2063 129.22 21.2063C127.082 21.2491 125.365 22.9942 125.365 25.1397C125.365 27.2852 127.129 29.077 129.306 29.077C131.482 29.077 133.239 27.3241 133.239 25.1436V25.1358C133.239 22.9631 135.004 21.1985 137.18 21.1985C139.357 21.1985 141.118 22.9631 141.118 25.1358C141.118 25.2097 141.118 25.2835 141.11 25.3574C141.226 27.4368 142.941 29.0731 145.043 29.0731C147.146 29.0731 148.981 27.3163 148.981 25.1358C148.981 22.9553 147.267 21.249 145.133 21.2024L145.14 21.2063Z" fill="white"/>
<path d="M77.6696 23.1536V14.42C77.6696 14.249 77.7085 14.1246 77.7318 13.9808C77.7396 13.9341 77.7435 13.8875 77.7513 13.8447C77.7785 13.7359 77.8057 13.6271 77.8445 13.5338C78.2293 12.3755 79.3021 11.5321 80.5808 11.5282C80.6119 11.5282 80.6469 11.536 80.6819 11.536C82.2327 11.466 83.4726 10.2067 83.4726 8.65588C83.4726 7.10505 82.3143 5.93902 80.8451 5.78743L80.8335 5.77577C80.7791 5.77577 80.7324 5.768 80.6897 5.76023C80.6508 5.76023 80.6119 5.75245 80.5692 5.75245C80.4992 5.75245 80.4409 5.768 80.3748 5.768L80.2582 5.74857V5.77966C78.0039 5.85351 76.0566 6.67362 74.4436 8.2983C72.7529 9.99293 71.9094 12.0296 71.9094 14.4083V25.9754C71.9094 27.5534 73.1998 28.8283 74.7973 28.8283C76.3948 28.8283 77.6852 27.5534 77.6852 25.9754C77.6852 25.9249 77.6735 25.8743 77.6696 25.8277V23.138V23.1536Z" fill="white"/>
</svg>
